<?xml version="1.0" encoding="UTF-8" standalone="no" ?>
<!DOCTYPE svg PUBLIC "-//W3C//DTD SVG 1.1//EN" "http://www.w3.org/Graphics/SVG/1.1/DTD/svg11.dtd">
<svg xmlns="http://www.w3.org/2000/svg"
  xmlns:xlink="http://www.w3.org/1999/xlink" version="1.1" width="1080" height="1080" viewBox="0 0 1080 1080" xml:space="preserve">
  <desc>Created with Fabric.js 5.2.4</desc>
  <defs>
  </defs>
  <rect x="0" y="0" width="100%" height="100%" fill="transparent"></rect>
  <g transform="matrix(1 0 0 1 540 540)" id="226f3a14-0c4c-411a-966f-7a8f2b0310cb">
    <rect style="stroke: none; stroke-width: 1; stroke-dasharray: none; stroke-linecap: butt; stroke-dashoffset: 0; stroke-linejoin: miter; stroke-miterlimit: 4; fill: rgb(255,255,255); fill-rule: nonzero; opacity: 1; visibility: hidden;" vector-effect="non-scaling-stroke" x="-540" y="-540" rx="0" ry="0" width="1080" height="1080" />
  </g>
  <g transform="matrix(Infinity NaN NaN Infinity 0 0)" id="fefbd13e-c26f-4683-9c07-baef5fd90f19">
  </g>
  <g transform="matrix(0.86 0 0 0.86 602.34 630.52)">
    <path style="stroke: none; stroke-width: 1; stroke-dasharray: none; stroke-linecap: butt; stroke-dashoffset: 0; stroke-linejoin: miter; stroke-miterlimit: 4; fill: rgb(254,254,254); fill-rule: evenodd; opacity: 1;" vector-effect="non-scaling-stroke" transform=" translate(-2160, -2035)" d="M 1824.5 2571.5 C 1879.66 2572.5 1935 2572.83 1990.5 2572.5 C 1990.5 2471.5 1990.5 2370.5 1990.5 2269.5 C 1995.81 2135.73 2049.14 2025.56 2150.5 1939 C 2224.07 1879.24 2308.41 1845.9 2403.5 1839 C 2455.5 1838.33 2507.5 1838.33 2559.5 1839 C 2581.6 1844.1 2596.43 1857.27 2604 1878.5 C 2605.03 1882.77 2605.7 1887.11 2606 1891.5 C 2606.67 1990.5 2606.67 2089.5 2606 2188.5 C 2603.03 2216.64 2587.86 2234.14 2560.5 2241 C 2507.5 2241.67 2454.5 2241.67 2401.5 2241 C 2301.11 2233.34 2213.27 2196.5 2138 2130.5 C 2127.12 2150.13 2118.79 2170.8 2113 2192.5 C 2110.31 2205.2 2107.64 2217.87 2105 2230.5 C 2104 2240.17 2103 2249.83 2102 2259.5 C 2101.67 2385.5 2101.33 2511.5 2101 2637.5 C 2095 2662.83 2079.17 2677.99 2053.5 2683 C 1956.17 2683.67 1858.83 2683.67 1761.5 2683 C 1736.72 2678.22 1720.89 2663.72 1714 2639.5 C 1713.33 2236.5 1713.33 1833.5 1714 1430.5 C 1721.32 1404.84 1738.15 1390.34 1764.5 1387 C 2020.17 1386.33 2275.83 1386.33 2531.5 1387 C 2556.24 1390.93 2572.4 1404.77 2580 1428.5 C 2584.96 1455.32 2576.12 1476.16 2553.5 1491 C 2547.08 1493.94 2540.42 1496.27 2533.5 1498 C 2297.17 1498.5 2060.83 1498.67 1824.5 1498.5 C 1824.5 1856.17 1824.5 2213.83 1824.5 2571.5 Z" stroke-linecap="round" />
  </g>
  <g transform="matrix(0.86 0 0 0.86 497.34 439.53)">
    <path style="stroke: none; stroke-width: 1; stroke-dasharray: none; stroke-linecap: butt; stroke-dashoffset: 0; stroke-linejoin: miter; stroke-miterlimit: 4; fill: rgb(253,253,253); fill-rule: evenodd; opacity: 1;" vector-effect="non-scaling-stroke" transform=" translate(-2040.17, -1815)" d="M 1981.5 1643.5 C 2018.83 1643.5 2056.17 1643.5 2093.5 1643.5 C 2093.33 1711.83 2093.5 1780.17 2094 1848.5 C 2095.3 1866.24 2096.97 1883.91 2099 1901.5 C 2066.15 1926.35 2036.48 1954.68 2010 1986.5 C 2006.57 1980.22 2003.9 1973.55 2002 1966.5 C 1992.43 1934.5 1986.09 1901.83 1983 1868.5 C 1981.55 1793.51 1981.05 1718.51 1981.5 1643.5 Z" stroke-linecap="round" />
  </g>
  <g transform="matrix(0.86 0 0 0.86 764.99 634.39)">
    <path style="stroke: none; stroke-width: 1; stroke-dasharray: none; stroke-linecap: butt; stroke-dashoffset: 0; stroke-linejoin: miter; stroke-miterlimit: 4; fill: rgb(0,0,0); fill-opacity: 0.08; fill-rule: evenodd; opacity: 1;" vector-effect="non-scaling-stroke" transform=" translate(-2350, -2040.56)" d="M 2408.5 1950.5 C 2437.17 1950.5 2465.83 1950.5 2494.5 1950.5 C 2494.5 2010.5 2494.5 2070.5 2494.5 2130.5 C 2463.15 2130.88 2431.81 2130.38 2400.5 2129 C 2325.47 2121.14 2260.47 2091.64 2205.5 2040.5 C 2247.29 2000.1 2296.62 1972.93 2353.5 1959 C 2371.74 1954.63 2390.07 1951.79 2408.5 1950.5 Z" stroke-linecap="round" />
  </g>
  <g transform="matrix(0.86 0 0 0.86 382.73 963.09)">
    <path style="stroke: none; stroke-width: 1; stroke-dasharray: none; stroke-linecap: butt; stroke-dashoffset: 0; stroke-linejoin: miter; stroke-miterlimit: 4; fill: rgb(158,159,161); fill-rule: evenodd; opacity: 1;" vector-effect="non-scaling-stroke" transform=" translate(-1907.5, -2421.06)" d="M 1990.5 2269.5 C 1990.5 2370.5 1990.5 2471.5 1990.5 2572.5 C 1935 2572.83 1879.66 2572.5 1824.5 2571.5 C 1879.5 2571.5 1934.5 2571.5 1989.5 2571.5 C 1989.17 2470.67 1989.5 2370 1990.5 2269.5 Z" stroke-linecap="round" />
  </g>
</svg>
