<?xml version="1.0" encoding="UTF-8" standalone="no" ?>
<!DOCTYPE svg PUBLIC "-//W3C//DTD SVG 1.1//EN" "http://www.w3.org/Graphics/SVG/1.1/DTD/svg11.dtd">
<svg xmlns="http://www.w3.org/2000/svg"
  xmlns:xlink="http://www.w3.org/1999/xlink" version="1.1" width="1080" height="1080" viewBox="0 0 1080 1080" xml:space="preserve">
  <desc>Created with Fabric.js 5.2.4</desc>
  <defs>
  </defs>
  <rect x="0" y="0" width="100%" height="100%" fill="transparent"></rect>
  <g transform="matrix(Infinity NaN NaN Infinity 0 0)" id="fefbd13e-c26f-4683-9c07-baef5fd90f19">
  </g>
  <g transform="matrix(1 0 0 1 540 540)" id="226f3a14-0c4c-411a-966f-7a8f2b0310cb">
    <rect style="stroke: none; stroke-width: 1; stroke-dasharray: none; stroke-linecap: butt; stroke-dashoffset: 0; stroke-linejoin: miter; stroke-miterlimit: 4; fill: rgb(255,255,255); fill-rule: nonzero; opacity: 1; visibility: hidden;" vector-effect="non-scaling-stroke" x="-540" y="-540" rx="0" ry="0" width="1080" height="1080" />
  </g>
  <g transform="matrix(0.3 0 0 0.3 691.8 628.44)">
    <path style="stroke: none; stroke-width: 1; stroke-dasharray: none; stroke-linecap: butt; stroke-dashoffset: 0; stroke-linejoin: miter; stroke-miterlimit: 4; fill: rgb(190,206,234); fill-rule: evenodd; opacity: 1;" vector-effect="non-scaling-stroke" transform=" translate(-2212.43, -178.6)" d="M 2197.5 55.5 C 2257.28 52.4789 2299.44 78.1456 2324 132.5 C 2342.38 188.831 2329.88 236.997 2286.5 277 C 2260.54 296.827 2231.21 304.827 2198.5 301 C 2159.44 295.6 2129.6 276.1 2109 242.5 C 2086.88 199.361 2087.22 156.361 2110 113.5 C 2130.47 81.0159 2159.64 61.6826 2197.5 55.5 Z" stroke-linecap="round" />
  </g>
  <g transform="matrix(0.3 0 0 0.3 228.23 720.3)">
    <path style="stroke: rgb(0,0,0); stroke-opacity: 0.5; stroke-width: 1; stroke-dasharray: none; stroke-linecap: butt; stroke-dashoffset: 0; stroke-linejoin: miter; stroke-miterlimit: 4; fill: rgb(240,240,240); fill-rule: evenodd; opacity: 1;" vector-effect="non-scaling-stroke" transform=" translate(-658.47, -486.52)" d="M 640.5 82.5 C 690.188 77.2676 728.688 95.2676 756 136.5 C 765.505 152.188 770.839 169.188 772 187.5 C 772.667 388.167 772.667 588.833 772 789.5 C 764.16 843.672 733.66 877.172 680.5 890 C 625.378 897.186 583.878 877.019 556 829.5 C 549.667 815.167 546 800.167 545 784.5 C 544.01 581.48 544.343 378.48 546 175.5 C 554.664 135.682 577.498 107.182 614.5 90 C 623.024 86.5403 631.691 84.0403 640.5 82.5 Z" stroke-linecap="round" />
  </g>
  <g transform="matrix(0.3 0 0 0.3 117.18 730.69)">
    <path style="stroke: rgb(0,0,0); stroke-opacity: 0.97; stroke-width: 1; stroke-dasharray: none; stroke-linecap: butt; stroke-dashoffset: 0; stroke-linejoin: miter; stroke-miterlimit: 4; fill: rgb(240,240,240); fill-rule: evenodd; opacity: 1;" vector-effect="non-scaling-stroke" transform=" translate(-281.21, -521.37)" d="M 133.5 147.5 C 238.19 147.017 342.857 147.517 447.5 149 C 486.309 157.668 513.142 180.502 528 217.5 C 541.783 269.182 526.616 309.682 482.5 339 C 467.56 347.425 451.56 352.425 434.5 354 C 378.834 354.5 323.168 354.667 267.5 354.5 C 267.5 378.5 267.5 402.5 267.5 426.5 C 316.168 426.333 364.834 426.5 413.5 427 C 441.066 429.865 463.566 442.032 481 463.5 C 506.536 496.097 511.536 531.764 496 570.5 C 479.306 603.849 452.472 623.349 415.5 629 C 366.168 629.5 316.834 629.667 267.5 629.5 C 267.667 682.501 267.5 735.501 267 788.5 C 261.487 833.048 238.653 865.214 198.5 885 C 144.246 905.884 97.0791 895.384 57 853.5 C 40.3511 833.235 31.3511 809.902 30 783.5 C 29.3333 609.5 29.3333 435.5 30 261.5 C 33.4534 213.08 56.9534 178.247 100.5 157 C 111.244 152.468 122.244 149.302 133.5 147.5 Z" stroke-linecap="round" />
  </g>
  <g transform="matrix(0.3 0 0 0.3 831.24 756.3)">
    <path style="stroke: none; stroke-width: 1; stroke-dasharray: none; stroke-linecap: butt; stroke-dashoffset: 0; stroke-linejoin: miter; stroke-miterlimit: 4; fill: rgb(190,206,234); fill-rule: evenodd; opacity: 1;" vector-effect="non-scaling-stroke" transform=" translate(-2679.86, -607.21)" d="M 2656.5 321.5 C 2718.57 317.675 2777.23 329.841 2832.5 358 C 2944.43 423.36 2993.6 520.86 2980 650.5 C 2960 752.482 2902.83 824.982 2808.5 868 C 2735.68 897.045 2661.34 901.378 2585.5 881 C 2500.85 854.452 2439.35 801.285 2401 721.5 C 2369.35 644.328 2369.68 567.328 2402 490.5 C 2448.39 400.801 2521.23 345.968 2620.5 326 C 2632.66 324.617 2644.66 323.117 2656.5 321.5 Z" stroke-linecap="round" />
  </g>
  <g transform="matrix(0.3 0 0 0.3 557.11 756.4)">
    <path style="stroke: rgb(0,0,0); stroke-opacity: 0.59; stroke-width: 1; stroke-dasharray: none; stroke-linecap: butt; stroke-dashoffset: 0; stroke-linejoin: miter; stroke-miterlimit: 4; fill: rgb(240,240,240); fill-rule: evenodd; opacity: 1;" vector-effect="non-scaling-stroke" transform=" translate(-1750.98, -607.54)" d="M 1802.5 323.5 C 1874.82 319.208 1936.65 342.208 1988 392.5 C 2015.35 422.539 2031.35 457.872 2036 498.5 C 2036.67 595.833 2036.67 693.167 2036 790.5 C 2029.2 833.629 2006.04 864.463 1966.5 883 C 1910.69 902.927 1864.19 890.094 1827 844.5 C 1816.48 829.115 1810.15 812.115 1808 793.5 C 1807.67 714.833 1807.33 636.167 1807 557.5 C 1801.09 531.259 1784.93 515.426 1758.5 510 C 1733.95 508.027 1714.78 517.194 1701 537.5 C 1697.48 543.399 1695.14 549.732 1694 556.5 C 1693.67 634.167 1693.33 711.833 1693 789.5 C 1686.4 836.44 1660.9 868.274 1616.5 885 C 1559.75 900.531 1514.58 884.365 1481 836.5 C 1473.71 823.009 1469.04 808.675 1467 793.5 C 1465.35 673.185 1465.02 552.852 1466 432.5 C 1468.96 384.727 1492.13 350.894 1535.5 331 C 1549.68 325.45 1564.35 323.45 1579.5 325 C 1609.08 343.375 1638.58 361.875 1668 380.5 C 1668.2 378.744 1668.7 377.078 1669.5 375.5 C 1709.16 346.167 1753.5 328.833 1802.5 323.5 Z" stroke-linecap="round" />
  </g>
  <g transform="matrix(0.3 0 0 0.3 365.96 756.38)">
    <path style="stroke: rgb(0,0,0); stroke-opacity: 0.71; stroke-width: 1; stroke-dasharray: none; stroke-linecap: butt; stroke-dashoffset: 0; stroke-linejoin: miter; stroke-miterlimit: 4; fill: rgb(240,240,240); fill-rule: evenodd; opacity: 1;" vector-effect="non-scaling-stroke" transform=" translate(-1120.14, -607.48)" d="M 1326.5 661.5 C 1238.16 661.167 1149.83 661.5 1061.5 662.5 C 1061.62 663.107 1061.96 663.44 1062.5 663.5 C 1079.7 685.117 1102.03 698.617 1129.5 704 C 1157.35 708.72 1185.35 709.72 1213.5 707 C 1248.81 699.673 1284.14 692.34 1319.5 685 C 1355.82 682.42 1384.32 695.92 1405 725.5 C 1420.84 756.874 1418.5 786.874 1398 815.5 C 1386.59 829.248 1373.09 840.415 1357.5 849 C 1318.7 868.6 1277.7 880.933 1234.5 886 C 1178.34 892.81 1122.34 891.81 1066.5 883 C 995.153 870.087 934.987 837.254 886 784.5 C 842.169 733.36 820.669 673.86 821.5 606 C 823.207 511.579 861.873 436.579 937.5 381 C 991.385 343.208 1051.38 324.374 1117.5 324.5 C 1251.68 325.463 1347.51 386.129 1405 506.5 C 1419.02 541.164 1422.36 576.831 1415 613.5 C 1407.69 638.469 1391.19 653.302 1365.5 658 C 1352.62 660.531 1339.62 661.698 1326.5 661.5 Z" stroke-linecap="round" />
  </g>
  <g transform="matrix(0.3 0 0 0.3 1000.87 756.31)">
    <path style="stroke: none; stroke-width: 1; stroke-dasharray: none; stroke-linecap: butt; stroke-dashoffset: 0; stroke-linejoin: miter; stroke-miterlimit: 4; fill: rgb(190,206,234); fill-rule: evenodd; opacity: 1;" vector-effect="non-scaling-stroke" transform=" translate(-3248.5, -607.23)" d="M 3464.5 418.5 C 3464.5 426.167 3464.5 433.833 3464.5 441.5 C 3458.6 479.059 3437.93 505.226 3402.5 520 C 3371.25 533.418 3340.25 547.418 3309.5 562 C 3295.85 569.24 3284.02 578.74 3274 590.5 C 3265.45 606.355 3260.78 623.355 3260 641.5 C 3259.67 687.833 3259.33 734.167 3259 780.5 C 3257.36 800.093 3251.69 818.427 3242 835.5 C 3208.09 883.916 3162.59 899.749 3105.5 883 C 3062.02 864.868 3037.85 832.368 3033 785.5 C 3032.33 667.833 3032.33 550.167 3033 432.5 C 3033.75 415.83 3038.08 400.163 3046 385.5 C 3068.53 346.482 3102.36 326.316 3147.5 325 C 3182.26 348.129 3216.76 371.629 3251 395.5 C 3251.33 393.833 3251.67 392.167 3252 390.5 C 3267.32 371.171 3285.16 354.671 3305.5 341 C 3328.63 327.479 3353.29 323.479 3379.5 329 C 3429.38 338.705 3457.71 368.538 3464.5 418.5 Z" stroke-linecap="round" />
  </g>
  <g transform="matrix(0.3 0 0 0.3 692.11 792.85)">
    <path style="stroke: none; stroke-width: 1; stroke-dasharray: none; stroke-linecap: butt; stroke-dashoffset: 0; stroke-linejoin: miter; stroke-miterlimit: 4; fill: rgb(190,206,234); fill-rule: evenodd; opacity: 1;" vector-effect="non-scaling-stroke" transform=" translate(-2213.48, -729.73)" d="M 2201.5 325.5 C 2244 322.504 2278.17 337.837 2304 371.5 C 2316.89 388.301 2324.56 407.301 2327 428.5 C 2327.67 629.167 2327.67 829.833 2327 1030.5 C 2321.15 1076.01 2297.32 1108.18 2255.5 1127 C 2200.58 1144.49 2155.42 1130.65 2120 1085.5 C 2107.53 1067.1 2100.87 1046.77 2100 1024.5 C 2099.02 823.82 2099.35 623.154 2101 422.5 C 2112.64 367.303 2146.14 334.97 2201.5 325.5 Z" stroke-linecap="round" />
  </g>
  <g transform="matrix(0.3 0 0 0.3 366.82 730.87)">
    <path style="stroke: rgb(0,0,0); stroke-width: 1; stroke-dasharray: none; stroke-linecap: butt; stroke-dashoffset: 0; stroke-linejoin: miter; stroke-miterlimit: 4; fill: rgb(255,255,254); fill-opacity: 0; fill-rule: evenodd; opacity: 1;" vector-effect="non-scaling-stroke" transform=" translate(-1123.03, -521.97)" d="M 1117.5 492.5 C 1151.96 491.311 1173.8 507.311 1183 540.5 C 1183.5 544.152 1183.67 547.818 1183.5 551.5 C 1143.17 551.5 1102.83 551.5 1062.5 551.5 C 1065.86 530.265 1076.19 513.432 1093.5 501 C 1101.16 496.837 1109.16 494.004 1117.5 492.5 Z" stroke-linecap="round" />
  </g>
  <g transform="matrix(0.3 0 0 0.3 831.48 757.47)">
    <path style="stroke: rgb(0,0,0); stroke-width: 1; stroke-dasharray: none; stroke-linecap: butt; stroke-dashoffset: 0; stroke-linejoin: miter; stroke-miterlimit: 4; fill: rgb(255,255,255); fill-rule: evenodd; opacity: 1;" vector-effect="non-scaling-stroke" transform=" translate(-2680.66, -611.12)" d="M 2671.5 518.5 C 2707.18 517.085 2733.35 532.085 2750 563.5 C 2761.21 586.576 2763.55 610.576 2757 635.5 C 2746.12 688.524 2713.96 710.69 2660.5 702 C 2636.33 693.833 2619.16 678 2609 654.5 C 2599.05 628.148 2598.05 601.481 2606 574.5 C 2614.98 550.519 2631.15 533.352 2654.5 523 C 2660.18 521 2665.84 519.5 2671.5 518.5 Z" stroke-linecap="round" />
  </g>
  <g transform="matrix(0.3 0 0 0.3 387.99 772.78)">
    <path style="stroke: none; stroke-width: 1; stroke-dasharray: none; stroke-linecap: butt; stroke-dashoffset: 0; stroke-linejoin: miter; stroke-miterlimit: 4; fill: rgb(59,59,59); fill-rule: evenodd; opacity: 1;" vector-effect="non-scaling-stroke" transform=" translate(-1194, -662.44)" d="M 1326.5 661.5 C 1238.5 662.167 1150.5 662.833 1062.5 663.5 C 1061.96 663.44 1061.62 663.107 1061.5 662.5 C 1149.83 661.5 1238.16 661.167 1326.5 661.5 Z" stroke-linecap="round" />
  </g>
</svg>
